<svg aria-hidden="true" style="position: absolute; width: 0; height: 0; overflow: hidden;" version="1.1" xmlns="http://www.w3.org/2000/svg" xmlns:xlink="http://www.w3.org/1999/xlink">
<defs>
<symbol id="icon-bug" viewBox="0 0 32 32">
<path d="M11.291 0.634c-0.475-0.672-1.41-0.835-2.089-0.365s-0.843 1.397-0.368 2.069l2.431 3.439c-1.579 0.5-2.655 1.039-2.655 1.039s2.629 4.48 7.089 4.48c4.46 0 7.629-4.176 7.629-4.176s-1.124-0.71-2.789-1.32l2.647-3.125c0.532-0.629 0.45-1.566-0.185-2.093s-1.581-0.445-2.113 0.183l-3.386 3.997c-0.067 0.079-0.125 0.164-0.172 0.251-0.398-0.046-0.804-0.072-1.214-0.072-0.575 0-1.149 0.044-1.709 0.117-0.028-0.052-0.060-0.103-0.095-0.152l-3.021-4.274z"></path>
<path d="M22.409 11.508c1.19-0.842 2.991-3.040 2.991-3.040s4.6 3.611 4.6 11.267c0 7.656-7.953 12.264-7.953 12.264s-3.8-3.801-4.733-8.619c-0.933-4.818 1.38-10.169 1.38-10.169s2.524-0.862 3.714-1.704z"></path>
<path d="M9.591 11.508c-1.19-0.842-2.991-3.040-2.991-3.040s-4.6 3.611-4.6 11.267c0 7.656 7.953 12.264 7.953 12.264s3.8-3.801 4.733-8.619c0.933-4.818-1.38-10.169-1.38-10.169s-2.524-0.862-3.714-1.704z"></path>
</symbol>
<symbol id="icon-dark" viewBox="0 0 32 32">
<path d="M16 32c-8.837 0-16-7.163-16-16s7.163-16 16-16c8.837 0 16 7.163 16 16s-7.163 16-16 16zM16 4.267c0 0 4.465 4.292 4.465 12.105s-4.465 11.361-4.465 11.361 13.023-0.198 12.651-11.361c-0.372-11.163-12.651-12.105-12.651-12.105z"></path>
</symbol>
<symbol id="icon-dragon" viewBox="0 0 32 32">
<path d="M17.553 15.93c-0.466 0.284-0.54 0.296-0.952 0.364-0.152 0.025-0.35 0.058-0.63 0.114-1.041 0.21-12.669 2.876-12.669 2.876s-0.866 0.084-1.224-0.282c-0.359-0.366 0.651-2.172 0.651-2.172s3.123-5.629 3.994-6.478c0.116-0.113 0.489-0.385 1.042-0.789 1.216-0.887 3.302-2.409 5.428-4.26 1.006-0.876 2.78-2.52 3.835-3.837 0.146-0.183 0.268-0.377 0.384-0.562 0.302-0.483 0.566-0.905 1.134-0.905 1.063 0 0.925 1.235 0.851 1.899-0.005 0.047-0.010 0.092-0.014 0.132-0.063 0.615-1.253 3.492-1.253 3.492s-0.165 0.628-0.174 0.944c6.74 0.516 12.045 6.025 12.045 12.746 0 7.061-5.856 12.786-13.080 12.786-5.906 0-10.898-3.826-12.523-9.081-0.040-0.171-0.073-0.339-0.094-0.5-0.168-1.229-0.168-2.080 0.25-1.928 0.12 0.044 0.303 0.478 0.548 1.062 0.226 0.538 0.505 1.202 0.838 1.804 0.56 1.012 1.384 1.816 1.478 1.767 0.069-0.036-0.122-0.332-0.374-0.722-0.162-0.251-0.349-0.54-0.509-0.824-0.341-0.608-0.572-1.239-0.266-1.32 0.255-0.067 0.708 0.497 1.253 1.174 0.249 0.309 0.516 0.642 0.793 0.949 0.716 0.796 1.566 1.369 1.688 1.307 0.101-0.051-0.101-0.352-0.351-0.725-0.123-0.184-0.258-0.385-0.375-0.582l-0.020-0.035c-0.276-0.467-0.501-0.849-0.269-0.99 0.293-0.178 0.916 0.415 1.436 0.91 0.382 0.364 0.709 0.676 0.81 0.59 0.096-0.081 0.034-0.279-0.033-0.491-0.098-0.312-0.207-0.655 0.166-0.707 0.128-0.018 0.332 0.095 0.643 0.267 0.2 0.111 0.373 0.34 1.014 0.752 1.126 0.602 1.769 0.707 2.996 0.707 2.989 0 5.413-2.369 5.413-5.291 0-2.199-1.373-4.085-3.327-4.884-0.148 0.308-0.333 0.585-0.55 0.717zM9.332 12.504c-0.624 0.593-1.659 2.008-1.659 2.008s1.924 0.118 2.983-0.888c1.060-1.007 0.817-2.722 0.817-2.722s-1.517 1.009-2.141 1.602z"></path>
</symbol>
<symbol id="icon-electric" viewBox="0 0 32 32">
<path d="M8.968 1.307c-0.219-0.64 0.251-1.307 0.919-1.307h10.412c0.426 0 0.803 0.281 0.929 0.694l5.126 16.768c0.194 0.634-0.274 1.276-0.929 1.276h-6.374c-0.323 0-0.556 0.313-0.468 0.627l3.192 11.376c0.295 1.050-1.066 1.734-1.713 0.861l-14.266-19.208c-0.482-0.649-0.025-1.577 0.778-1.577h4.961c0.334 0 0.569-0.334 0.46-0.654l-3.027-8.856z"></path>
</symbol>
<symbol id="icon-fairy" viewBox="0 0 32 32">
<path d="M6.976 25.438c-0.393 0.114-0.756-0.252-0.64-0.644l1.279-4.322-7.345-4.017c-0.359-0.196-0.359-0.712 0-0.908l7.413-4.054-1.346-4.549c-0.116-0.392 0.247-0.758 0.64-0.644l4.551 1.319 4.019-7.349c0.196-0.359 0.712-0.359 0.908 0l4.019 7.349 4.551-1.319c0.393-0.114 0.756 0.252 0.64 0.644l-1.346 4.549 7.413 4.054c0.359 0.196 0.359 0.712 0 0.908l-7.345 4.017 1.279 4.322c0.116 0.392-0.248 0.758-0.64 0.644l-4.426-1.283-4.144 7.576c-0.196 0.359-0.712 0.359-0.908 0l-4.144-7.576-4.426 1.283zM11.018 16.498l2.955 1.616 1.616 2.955c0.196 0.359 0.712 0.359 0.908 0l1.616-2.955 2.955-1.616c0.359-0.196 0.359-0.712 0-0.908l-2.955-1.616-1.616-2.955c-0.196-0.359-0.712-0.359-0.908 0l-1.616 2.955-2.955 1.616c-0.359 0.196-0.359 0.712 0 0.908z"></path>
</symbol>
<symbol id="icon-fighting" viewBox="0 0 32 32">
<path d="M5.612 2.66c0.384-1.529 1.757-2.66 3.391-2.66 1.231 0 2.314 0.642 2.937 1.612 0.096-0.008 0.193-0.012 0.292-0.012 0.227 0 0.449 0.022 0.664 0.063 0.639-0.695 1.552-1.13 2.566-1.13 1.44 0 2.678 0.878 3.214 2.133l0.015-0c0.249 0 0.491 0.026 0.726 0.076 0.56-0.385 1.237-0.609 1.965-0.609 1.512 0 2.8 0.968 3.289 2.324 0.265 0.092 0.516 0.215 0.748 0.365 0.544-0.351 1.19-0.555 1.884-0.555 1.932 0 3.498 1.58 3.498 3.53v10.776c0 0.065-0.002 0.129-0.005 0.194-0.211 7.342-6.754 13.234-14.795 13.234-8.174 0-14.8-6.089-14.8-13.6 0-3.626 1.544-6.92 4.061-9.358-0.006 3.535 0.053 7.189 0.326 7.126 0.73-0.168 0.16-11.116 0.026-13.508z"></path>
</symbol>
<symbol id="icon-fire" viewBox="0 0 32 32">
<path d="M22.032 24.712c0.396-1.446-0.372-4.418-0.372-4.418s-0.557 2.421-1.428 3.316c-0.743 0.763-1.652 1.293-2.957 1.432 1.067-0.518 1.801-1.597 1.801-2.845 0-1.752-1.446-3.172-3.229-3.172s-3.229 1.42-3.229 3.172c0 0.478 0.108 0.932 0.301 1.339-1.116-0.888-1.291-2.311-1.291-2.311s-1.246 5.167 2.187 7.597c3.432 2.43 10.156 0.341 10.156 0.341s-9.622 6.764-16.751-0.598c-6.142-6.342-1.603-14.69-1.603-14.69s-0.196 0.775-0.196 1.674c0 0.899 0.488 1.583 0.488 1.583s1.455-3.065 2.588-4.311c1.072-1.18 2.416-2.136 3.576-2.963 0.893-0.636 1.678-1.195 2.147-1.719 2.582-2.885 0.999-8.139 0.999-8.139s2.911 2.564 3.723 5.875c0.31 1.262 0.11 2.698-0.068 3.982-0.289 2.085-0.523 3.769 1.567 3.66 3.377-0.177 0.442-5.378 0.442-5.378s7.66 4.022 7.088 11.058c-0.572 7.035-8.373 8.634-8.373 8.634s2.040-1.673 2.436-3.119z"></path>
</symbol>
<symbol id="icon-flying" viewBox="0 0 32 32">
<path d="M10.256 9.446c-3.985 0.372-11.233 3.351-10.146 11.542s7.248 9.365 12.684 8.936c5.436-0.43 9.785-7.446 8.335-6.329s-4.711 0.745-4.711 0.745c4.49-2.347 6.066-3.278 7.61-5.585-3.876 1.161-5.337 1.24-7.61 1.117 8.334-2.606 9.643-5.647 11.597-8.563-7.076 3.341-9.508 4.005-11.959 3.723 10.998-4.816 13.788-7.709 15.945-13.031-9.373 4.634-17.759 7.074-21.744 7.446z"></path>
</symbol>
<symbol id="icon-ghost" viewBox="0 0 32 32">
<path d="M16.44 31.814c6.431 0.768 11.873-1.024 14.547-2.162 0.64-0.272 0.535-1.138-0.138-1.314-1.024-0.268-2.337-0.64-3.628-1.088 2.949-2.886 4.778-6.901 4.778-11.341 0-8.787-7.163-15.91-16-15.91s-16 7.123-16 15.91c0 8.787 7.163 15.91 16 15.91 0.147 0 0.294-0.002 0.44-0.006zM13.75 13.639c0 1.345-1.119 2.436-2.5 2.436s-2.5-1.090-2.5-2.436c0-0.902 0.503-1.69 1.252-2.11 0.043 1.173 1.013 2.11 2.203 2.11h1.546zM20.25 16.074c-1.381 0-2.5-1.090-2.5-2.436h1.546c1.19 0 2.16-0.938 2.203-2.11 0.748 0.421 1.252 1.208 1.252 2.11 0 1.345-1.119 2.436-2.5 2.436z"></path>
</symbol>
<symbol id="icon-grass" viewBox="0 0 32 32">
<path d="M7.767 29.303c5.529 3.833 12.732 3.962 18.765-2.105 6.995-7.034 3.284-27.198 3.284-27.198s-16.77 0.059-23.397 5.778c-6.627 5.719-6.866 15.679-1.157 21.419 0.164 0.165 0.33 0.326 0.499 0.484l4.997-6.211v-7.574l1.838 5.695 3.964-4.501-0.774-5.158 2.198 3.124 5.692-6.43-4.001 7.271 4.001 1.194-5.060 1.117-4.445 4.559 6.995 0.704-8.569 1.864-4.829 5.969z"></path>
</symbol>
<symbol id="icon-ground" viewBox="0 0 33 32">
<path d="M7.562 27.637c-0.111 0-0.189-0.11-0.152-0.215l8.155-23.043c0.023-0.064 0.084-0.107 0.152-0.107h8.608c0.068 0 0.129 0.043 0.152 0.108l8.034 23.043c0.036 0.105-0.041 0.214-0.152 0.214h-24.797zM0.454 27.728c-0.112 0-0.19-0.112-0.151-0.217l6.040-16.125c0.024-0.063 0.084-0.104 0.151-0.104h5.030c0.112 0 0.189 0.111 0.151 0.216l-5.84 16.125c-0.023 0.064-0.084 0.106-0.151 0.106h-5.23z"></path>
</symbol>
<symbol id="icon-ice" viewBox="0 0 32 32">
<path d="M24.246 2.036l0.101 8.879-7.735 3.718-0.095-8.383 7.729-4.213z"></path>
<path d="M32 16.027l-7.657 4.385-7.662-4.392 7.658-4.027 7.661 4.034z"></path>
<path d="M15.319 16.027l-7.657 4.385-7.662-4.392 7.658-4.027 7.661 4.034z"></path>
<path d="M7.576 2l7.948 3.941-0.203 8.588-7.504-3.721-0.24-8.808z"></path>
<path d="M24.462 29.92l-7.948-3.941 0.203-8.588 7.504 3.721 0.24 8.808z"></path>
<path d="M7.85 30l-0.101-8.879 7.735-3.718 0.095 8.383-7.73 4.213z"></path>
</symbol>
<symbol id="icon-normal" viewBox="0 0 32 32">
<path d="M16 32c-8.837 0-16-7.163-16-16s7.163-16 16-16c8.837 0 16 7.163 16 16s-7.163 16-16 16zM16 25.143c5.049 0 9.143-4.093 9.143-9.143s-4.093-9.143-9.143-9.143c-5.049 0-9.143 4.093-9.143 9.143s4.093 9.143 9.143 9.143z"></path>
</symbol>
<symbol id="icon-poison" viewBox="0 0 32 32">
<path d="M8.842 32c-2.325 0-4.21-2.529-4.21-5.649 0-0.721 0.101-1.411 0.284-2.045-3.030-2.57-4.916-6.183-4.916-10.184 0-7.799 7.163-14.122 16-14.122s16 6.323 16 14.122c0 4.152-2.030 7.885-5.261 10.469 0.135 0.554 0.209 1.146 0.209 1.761 0 3.12-1.885 5.649-4.21 5.649-1.377 0-2.6-0.887-3.368-2.259-0.768 1.372-1.991 2.259-3.368 2.259-1.511 0-2.836-1.068-3.579-2.672-0.743 1.604-2.068 2.672-3.579 2.672zM15.789 21.572c5.232 0 9.474-3.21 9.474-7.17s-4.241-7.17-9.474-7.17c-5.232 0-9.474 3.21-9.474 7.17s4.242 7.17 9.474 7.17z"></path>
</symbol>
<symbol id="icon-psychic" viewBox="0 0 32 32">
<path d="M28.465 26.577c0 0-4.019 3.237-12.018 1.897-6.068-1.016-9.305-7.732-9.305-11.342 0-8.559 6.31-10.507 10.576-10.507s7.049 4.175 7.049 7.408-2.278 6.060-5.822 6.060c-3.544 0-4.594-2.498-4.594-4.795s1.851-3.106 3.539-3.106c1.688 0 2.266 1.447 2.266 2.69s-0.961 1.689-1.763 1.689-1.112-0.202-1.188-0.833c-0.075-0.631 0.423-1.854-0.758-2.042s-1.319 1.675-1.319 2.042c0 0.367 0.374 3.399 3.816 3.337s5.075-2.733 4.6-5.378-3.031-5.456-7.519-4.888c-4.487 0.568-6.319 5.12-5.512 9.984s6.612 7.683 11.176 6.669c4.564-1.014 9.11-4.331 9.11-12.742s-7.255-13.466-15.907-12.633-14.022 8.427-13.678 17.55c0.344 9.124 8.967 14.093 16.259 14.349s11.762-3.982 11.762-3.982 1.005-0.9 0.611-1.603c-0.394-0.703-1.382 0.173-1.382 0.173z"></path>
</symbol>
<symbol id="icon-rock" viewBox="0 0 33 32">
<path d="M25.177 15.378c-0.023-0.032-0.033-0.072-0.026-0.111l2.013-11.736c0.012-0.070 0.073-0.121 0.144-0.121h0.434c0.064 0 0.12 0.041 0.139 0.102l4.541 14.379c0.018 0.058-0.001 0.122-0.049 0.159l-3.208 2.505c-0.065 0.051-0.159 0.038-0.208-0.029l-3.78-5.148zM0.384 23.126c0 0.063 0.041 0.119 0.101 0.139l6.834 2.235c0.043 0.014 0.091 0.007 0.128-0.019l15.523-10.716c0.033-0.023 0.056-0.059 0.062-0.099l1.644-11.031c0.013-0.088-0.055-0.168-0.145-0.168h-13.621c-0.044 0-0.085 0.019-0.112 0.053l-10.38 12.522c-0.022 0.026-0.034 0.059-0.034 0.093v6.991zM10.296 26.103l7.572 2.48c0.044 0.014 0.093 0.007 0.131-0.020l8.931-6.406c0.064-0.046 0.080-0.135 0.036-0.2l-3.26-4.851c-0.045-0.067-0.137-0.085-0.204-0.039l-13.206 9.036z"></path>
</symbol>
<symbol id="icon-steel" viewBox="0 0 33 32">
<path d="M32.482 15.841c0.055 0.093 0.055 0.209 0 0.302l-7.966 13.61c-0.054 0.092-0.152 0.148-0.258 0.148h-15.791c-0.107 0-0.205-0.057-0.258-0.149l-7.878-13.61c-0.054-0.093-0.054-0.207 0-0.299l7.878-13.594c0.053-0.092 0.152-0.149 0.258-0.149h15.791c0.106 0 0.204 0.056 0.258 0.148l7.966 13.594zM16.404 8.515c-4.134 0-7.485 3.351-7.485 7.485s3.351 7.485 7.485 7.485c4.134 0 7.485-3.351 7.485-7.485s-3.351-7.485-7.485-7.485z"></path>
</symbol>
<symbol id="icon-water" viewBox="0 0 32 32">
<path d="M16 32c5.744 0 10.4-4.776 10.4-10.667s-10.4-21.333-10.4-21.333c0 0-10.4 15.442-10.4 21.333s4.656 10.667 10.4 10.667zM9.626 22.756c0 0 2.013 2.978 4.361 3.911s6.71-0.356 6.71-0.356-2.013 3.2-6.374 2.489c-4.361-0.711-4.697-6.044-4.697-6.044z"></path>
</symbol>
</defs>
</svg>
